<svg width="1200" height="300" viewBox="0 0 1200 300" xmlns="http://www.w3.org/2000/svg">
  <defs>
    <linearGradient id="bgGrad" x1="0%" y1="0%" x2="100%" y2="100%">
      <stop offset="0%" style="stop-color:#0d0d0d;stop-opacity:1" />
      <stop offset="100%" style="stop-color:#1a1a1a;stop-opacity:1" />
    </linearGradient>
    <linearGradient id="accentGrad" x1="0%" y1="0%" x2="100%" y2="0%">
      <stop offset="0%" style="stop-color:#ef4444;stop-opacity:1" />
      <stop offset="100%" style="stop-color:#dc2626;stop-opacity:1" />
    </linearGradient>
  </defs>

  <!-- Background -->
  <rect width="1200" height="300" fill="url(#bgGrad)"/>

  <!-- Subtle grid pattern -->
  <g opacity="0.02">
    <line x1="0" y1="75" x2="1200" y2="75" stroke="#fff" stroke-width="1"/>
    <line x1="0" y1="150" x2="1200" y2="150" stroke="#fff" stroke-width="1"/>
    <line x1="0" y1="225" x2="1200" y2="225" stroke="#fff" stroke-width="1"/>
  </g>

  <!-- Centered content group -->
  <g transform="translate(600, 150)">
    <!-- Logo -->
    <g transform="translate(-380, 0) scale(0.55)">
      <!-- Left brace -->
      <path d="M -30 -90
               Q -50 -90 -60 -80
               Q -70 -70 -70 -50
               L -70 -15
               Q -70 -5 -80 -5
               L -90 -5
               L -90 5
               L -80 5
               Q -70 5 -70 15
               L -70 50
               Q -70 70 -60 80
               Q -50 90 -30 90"
            fill="none"
            stroke="#ffffff"
            stroke-width="10"
            stroke-linecap="round"
            stroke-linejoin="round"/>

      <!-- Right brace -->
      <path d="M 30 -90
               Q 50 -90 60 -80
               Q 70 -70 70 -50
               L 70 -15
               Q 70 -5 80 -5
               L 90 -5
               L 90 5
               L 80 5
               Q 70 5 70 15
               L 70 50
               Q 70 70 60 80
               Q 50 90 30 90"
            fill="none"
            stroke="#ffffff"
            stroke-width="10"
            stroke-linecap="round"
            stroke-linejoin="round"/>

      <!-- Center dots -->
      <circle cx="-15" cy="0" r="5" fill="#ef4444"/>
      <circle cx="0" cy="0" r="5" fill="#ef4444"/>
      <circle cx="15" cy="0" r="5" fill="#ef4444"/>
    </g>

    <!-- Title text -->
    <text x="30" y="-10" font-family="system-ui, -apple-system, 'Segoe UI', sans-serif" font-size="56" font-weight="700" fill="#ffffff" text-anchor="middle" letter-spacing="-1">
      Reverse API Engineer
    </text>

    <!-- Tagline -->
    <text x="30" y="35" font-family="system-ui, -apple-system, 'Segoe UI', sans-serif" font-size="18" fill="#888888" text-anchor="middle" letter-spacing="2">
      CAPTURE · ANALYZE · GENERATE
    </text>
  </g>

  <!-- Accent line -->
  <rect x="0" y="298" width="1200" height="2" fill="url(#accentGrad)"/>
</svg>
